<svg xmlns="http://www.w3.org/2000/svg" viewBox="0 0 164.669 192.312"><defs><style>.a{fill:none;stroke:#2a5caa;stroke-miterlimit:10;}.b{fill:#c2d4e8;}</style></defs><g transform="translate(-3.5 -3.741)"><path class="a" d="M124.539,39.855C115.077,33.888,106,31.544,96.962,25.577,91.421,21.826,83.621,12.79,77.143,4.99c-1.151,12.488-4.9,17.56-9.377,21.1-9.079,7.246-14.833,9.462-22.8,13.767C38.229,43.393,2,68.327,2,114.785c0,46.543,39.127,80.769,82.6,80.769,43.347,0,81.067-31.54,81.067-79.277C165.669,68.412,130.293,43.393,124.539,39.855Z" transform="translate(2 0)"/><path class="b" d="M189.493,312.423c-6.479-.426-19.393-20.8-27.7-21.1-13.17-.384-44.37,34.4-68.75,17.9-16.537-11.338-6.223-44.668,22.078-44.839,21.1-.213,35.717,20.885,46.245,20.672,9.079-.128,26.34-17.816,34.865-17.816C216.984,267.244,206.158,313.83,189.493,312.423Z" transform="translate(-47.692 -148.836)"/><path class="b" d="M223.952,406.775c-8.567,8.567-38.4,12.233-49.74,1.79-2.046-2.046.128-5.115,2.77-5.115,0,0,7.246,5.669,21.95,5.669,11.508,0,19.606-3.282,23.229-5.967C224.761,401.192,225.742,404.985,223.952,406.775Z" transform="translate(-98.347 -228.142)"/><path class="b" d="M224.057,358.284c3.708-1.534,12.36-1.62,15.685.554,1.747,1.193,6.862,8.013,2.643,10.1-3.58,1.79-.511-6.692-11.295-6.692-6.265,0-8.311,2.216-11.38,4.688-2.984,2.557-4.177,3.41-5.2,2C211.952,365.444,221.286,359.434,224.057,358.284Z" transform="translate(-121.681 -202.07)"/></g></svg>